Patient4_TMGait_0pt6_02_left_15_EMG.mot
version=1
nRows=40
nColumns=33
inDegrees=no
endheader
time	1LAddLong	2LGlutMax	3LGlutMed	4LIliopsoas	5LSemiMemb	6LBicFemLong	7LRecFem	8LVastMed	9LVastLat	10LGasMed	11LTibAnt	12lTibPost	13LPeroneusLong	14LSol	15LExtDigLong	16LFlexDigLong	17RAddLong	18RGlutMax	19RGlutMed	20RIliopsoas	21RSemiMemb	22RBicFemLong	23RRecFem	24RVastMed	25RVastLat	26RGasMed	27RTibAnt	28RTibPost	29RPeroneusLong	30RSol	31RExtDigLong	32RFlexDigLong
19.275	0.00824	0.047455	-0.24551	-0.003052	-0.053406	-0.067139	-0.074615	0.008392	-0.015259	0.68924	-0.001373	0.011902	0.10254	-0.14206	0.011902	0.083923	-0.022125	-0.23331	0.062103	-0.10712	0.6279	0.36331	-0.50797	0.3006	0.52261	0.004883	0.053711	-0.017395	0.044708	-0.072021	-0.006256	0.00473
19.276	0.004883	0.075989	-0.19836	0.005341	0.011292	0.02121	-0.09491	0.001068	-0.019836	0.69931	-0.015564	0.008545	0.2388	0.10208	0.027161	-0.12817	0.078735	-0.20157	-0.080719	-0.11612	0.5452	0.26077	-0.30991	0.045471	0.41168	0.001526	0.053253	-0.013275	-0.46783	-0.01709	-0.006104	-0.003967
19.277	0.004883	0.086975	-0.22018	0.001221	0.075226	0.079041	-0.11078	0.005798	-0.007019	0.59387	0.003204	0.017242	0.091705	0.31677	0.026703	-0.65887	0.11108	-0.23972	-0.14221	-0.019684	0.28107	0.19531	-0.26642	-0.065155	0.29327	-0.00061	0.031281	-0.012817	0.090332	0.00824	-0.002899	-0.005188
19.278	0.003052	0.056152	-0.22736	-0.000458	0.049896	0.071106	-0.079956	0.00412	0.007019	-0.093384	-0.003357	0.013123	0.053711	0.34653	-0.002747	0.9111	0.15381	-0.2388	0.032959	0.112	0.093384	0.22919	-0.22308	-0.13351	0.27237	-0.002747	0.028076	-0.012512	0.011749	0.077972	-0.001678	-0.013275
19.279	-0.001984	0.081635	-0.17746	0.013275	0.006561	0.061951	-0.098419	0.006866	0.00412	-0.11475	0.005035	0.014191	0.06012	0.2153	-0.03418	-0.14557	0.11673	-0.18494	0.28244	0.24429	-0.043793	0.31784	-0.17456	-0.29541	0.12238	-0.006409	0.041656	-0.010681	-0.093689	0.10803	-0.005646	-0.007019
19.28	-0.003052	0.1149	-0.20477	0.027313	-0.013428	0.032196	-0.11337	0.006409	0.009003	-0.32532	0.009918	0.003052	0.066223	-0.020752	-0.032959	-0.33951	0.039978	-0.08728	0.21316	0.20386	-0.33096	0.47257	-0.21591	-0.21774	-0.036926	-0.005951	0.017853	-0.006256	-0.33707	0.07019	-0.006866	-0.005493
19.281	-0.003357	0.15259	-0.22278	0.004425	-0.014191	0.024414	-0.10223	0.007782	0.010071	-0.56625	-0.004578	0.010681	0.075684	0.085602	-0.033112	-0.24643	-0.050201	-0.093536	0.095825	0.12482	-0.71289	0.62424	-0.35431	0.071564	-0.11292	-0.006561	-0.050507	-0.002289	-0.18082	-0.033264	0.00061	-0.00473
19.282	-0.007782	0.17609	-0.18936	0.005646	0.010834	-0.049591	-0.1149	0.005188	0.021515	-0.61325	0.000916	0.009766	0.085602	-0.2446	-0.026398	0.56702	-0.12604	-0.052948	-0.20721	0.096893	-0.2681	0.75317	-0.47516	0.41519	-0.047302	-0.007324	-0.088806	-0.003357	0.038757	-0.068359	-0.001068	-0.002747
19.283	0.003204	0.14145	-0.17838	0.001984	0.018005	-0.14984	-0.11444	0.006256	0.02182	-0.096436	0.006561	-0.004425	0.072784	-0.19089	-0.024567	0.018616	-0.096588	-0.23895	-0.36285	0.007324	0.54184	0.81833	-0.41077	0.46219	-0.003815	-0.005188	-0.085449	0.002289	-0.036011	-0.039368	0.002899	-0.001984
19.284	0.003815	0.103	-0.095062	-0.00885	-0.027771	-0.15533	-0.10513	0.011749	0.021057	0.12833	-0.005493	0.005951	0.00885	-0.11841	-0.026703	0.008392	0.032654	-0.23331	-0.56152	-0.081635	0.61768	0.74524	-0.3862	0.40619	-0.027161	-0.006714	-0.016785	0.00351	-0.017395	-0.0354	-0.008392	-0.008545
19.285	0.001984	0.19379	-0.10361	-0.005035	-0.052338	-0.066071	-0.10086	0.006409	0.027008	0.168	0.005341	0.006561	-0.041199	0.060425	-0.027771	0.054932	0.10452	-0.20828	-0.39047	-0.083923	0.41443	0.67703	-0.4364	0.25375	-0.13534	-0.007629	0.11444	0.003204	0.06958	-0.041656	-0.001984	0.004425
19.286	0.003052	0.21225	-0.02594	0.001831	-0.048065	-0.042419	-0.103	0.004883	0.024261	-0.29266	0.009613	0.015411	-0.098724	0.22247	-0.023041	0.050812	0.10086	-0.1947	-0.16052	-0.09964	0.20248	0.68848	-0.33493	0.070648	-0.29633	-0.002441	0.11658	0.003052	0.02655	-0.066376	-0.005035	0.014801
19.287	0.001068	0.15472	0.00885	0.006256	-0.043335	-0.014954	-0.10254	0.00473	0.019836	-0.77621	0.008392	0.018768	-0.12772	0.25085	-0.006409	0.038757	0.041199	-0.21286	-0.020294	-0.16266	-0.030975	0.69687	-0.20157	-0.00412	-0.19836	-0.007477	0.058746	0.001678	0.028534	-0.016022	-0.004272	0.006256
19.288	0.012054	0.16296	0.0354	0.002594	0.029449	0.030365	-0.10819	0.003052	0.019073	-0.64575	0.007172	0.018005	-0.094452	0.27618	-0.009308	-0.005035	0.016479	-0.23865	0.29297	-0.17624	-0.15793	0.68207	-0.20493	-0.033875	-0.011139	-0.009766	-0.003662	0.003815	0.049591	-0.02243	-0.00824	0.005188
19.289	-0.000458	0.19898	0.056458	0.006866	0.072632	0.15686	-0.090179	0.005493	-0.001526	-0.35278	0.006561	-0.002441	-0.052948	0.3833	0.002136	-0.057983	0.000305	-0.20874	0.54733	-0.14725	0.031281	0.62454	-0.20355	-0.012512	0.12924	-0.007019	0.003967	0.003967	-0.064087	-0.044098	-0.00473	0.009003
19.29	-0.007324	0.21164	0.1738	-0.005951	0.057983	0.26413	-0.077362	0.005798	-0.000305	-0.15808	0.006714	-0.006256	-0.026398	0.39032	-0.002441	-0.050964	0.014954	-0.25116	0.59479	-0.02594	0.1091	0.56778	-0.26993	-0.032196	0.12955	-0.002289	-0.013428	0.004883	-0.093536	-0.047607	-0.005493	0.006714
19.291	-0.009003	0.18539	0.19348	0.021057	0.011292	0.21713	-0.082245	0.007019	-0.00351	0.045013	0.010376	-0.001526	0.058746	0.32349	-0.014954	-0.045929	0.028687	-0.32486	0.42374	-0.001984	0.088654	0.38238	-0.28595	-0.13657	-0.001221	-0.006714	0.052032	0.008087	-0.028076	-0.044556	-0.005951	0.006104
19.292	-0.008087	0.17731	0.26535	0.019073	-0.006104	0.08728	-0.072632	0.00061	0.009308	0.32684	0.008698	0.00412	0.050201	0.15869	-0.00824	-0.049133	-0.000153	-0.39612	0.18906	-0.075836	0.17334	0.13626	-0.20477	-0.071564	-0.061035	-0.007019	0.1799	0.005798	0.000763	-0.066376	-0.00412	-0.000458
19.293	-0.000458	0.25681	0.345	-0.007935	-0.04715	0.001221	-0.097046	-0.001831	0.014954	0.19501	0.010376	-0.001373	0.017395	-0.42893	-0.008698	-0.038147	-0.069427	-0.36499	0.08194	-0.023193	-0.047455	0.028839	-0.13046	0.15976	-0.076904	-0.003357	0.28763	0.003967	-0.012817	-0.079803	-0.001831	0.003815
19.294	0.001221	0.25559	0.3479	0.019989	-0.03418	-0.054932	-0.09552	0.003204	0.007324	-0.11993	0.004425	0.00412	0.010071	-0.37262	0.007935	-0.061951	-0.1297	-0.33188	0.008392	0.06546	-0.093994	0.099182	-0.10941	0.24353	-0.103	-0.007935	0.32806	0.009003	-0.009308	-0.058136	-0.005035	-0.010071
19.295	-0.000305	0.18112	0.35706	0.018616	0.00946	-0.13626	-0.075836	0.002441	0.014648	-0.11749	0.005646	0.003357	-0.007782	0.12878	-0.004578	-0.078278	-0.16129	-0.36713	0.15869	0.099182	0.050659	-0.003357	-0.091858	0.24399	-0.17471	-0.000153	0.41245	0.010681	0.06958	-0.065613	-0.001068	-0.000153
19.296	-0.001526	0.17471	0.38589	0.011902	0.042725	-0.1416	-0.060883	0.007935	-0.002136	-0.10895	0.005188	0.003357	-0.005798	0.36987	-0.016174	-0.037994	-0.10025	-0.28061	-0.061188	0.11124	0.2803	-0.39124	-0.06485	0.12207	-0.1445	-0.001221	0.18707	0.006409	0.17334	-0.072021	0.011902	-0.003357
19.297	0.000916	0.19836	0.3772	0.006866	0.079803	-0.1265	-0.089874	0.001526	0.000153	-0.054932	0.011139	-0.003357	0.003662	0.29205	-0.011902	-0.034943	-0.012817	-0.20462	-0.42938	0.079651	0.21057	-0.69656	0.026398	0.00885	-0.10407	-0.006561	-0.44144	0.001831	0.090637	-0.017395	-0.000916	-0.003815
19.298	0.001526	0.21805	0.39154	-0.005646	0.053101	0.00351	-0.10742	-0.003204	0.001984	0.11429	0.011749	0	-0.019989	0.099335	-0.017242	0.003967	0.03067	-0.18646	-0.45548	0.037994	-0.03479	-0.80185	-0.10941	-0.065613	-0.050812	-0.008392	-0.65338	0.003052	0.020447	-0.011444	-0.002441	-0.00885
19.299	-0.005035	0.20645	0.41092	0.003052	-0.012512	0.035553	-0.087128	0.004272	-0.001984	0.084229	0.016022	0.000305	0.000916	-0.12177	0.004425	0.010834	0.056915	-0.16022	-0.33661	0.02243	-0.06958	-1.044	-0.36301	-0.025635	0.10437	-0.006561	-0.41382	0.007324	0.042572	0.002441	-0.003052	-0.001984
19.3	-0.001221	0.21896	0.41565	0.009155	-0.093231	-0.011902	-0.078735	0.002747	-0.002441	-0.024567	-0.000916	0.000458	0.020447	-0.29602	0.029449	-0.002136	0.072021	-0.054016	-0.31464	-0.005035	0.12314	-1.2613	-0.41428	-0.21042	0.23132	-0.003967	-0.16907	0.002594	0.021667	-0.007782	0.001221	-0.003204
19.301	-0.006256	0.16739	0.41351	-0.011597	-0.15411	-0.089874	-0.068207	0.004578	-0.012512	0.042419	0.002747	-0.000916	-0.018921	-0.1918	0.036621	-0.021973	0.03067	0.033112	-0.40207	0.02243	0.36133	-1.2616	-0.13825	-0.39597	0.1564	-0.010986	-0.050507	0.002594	0.27908	-0.024719	-0.003662	0.003052
19.302	-0.021515	0.17899	0.40314	-0.019836	-0.11627	-0.10651	-0.053406	-0.003052	-0.014038	0.23895	-0.001984	0.010071	-0.024719	-0.077515	0.019073	-0.048218	0.041199	0.007172	-0.78873	0.002899	0.34622	-1.1879	0.13855	-0.42694	0.074921	-0.006714	0.10513	0.00351	0.039063	-0.065918	-0.004425	0.002899
19.303	-0.002899	0.18372	0.40207	-0.008698	0.058594	-0.11658	-0.076294	-0.003357	-0.013428	0.44739	0.001984	0.015106	-0.00824	-0.03952	0.007019	-0.043488	0.016174	0.057526	-1.0443	0.02655	0.12054	-1.0574	-0.063934	-0.11154	0.11505	-0.005493	0.1683	-0.006561	-0.18601	-0.11078	-0.004425	0.001068
19.304	0.001678	0.16022	0.4068	0.027618	0.092316	-0.091705	-0.070496	0.001068	-0.013275	0.12894	0.012207	0.002747	-0.031281	-0.00473	-0.000305	-0.032196	-0.048523	0.040131	-0.90714	0.028534	-0.09903	-1.0063	-0.24353	0.1033	0.15686	0.007477	-0.022583	0.003662	0.086212	-0.19516	-0.003967	0.001831
19.305	0	0.091248	0.43442	0.043182	-0.018616	-0.056305	-0.072479	0.001373	-0.016327	-0.31326	0.010834	0.010376	-0.10056	0.022888	0.005798	-0.033264	0.014038	-0.10452	-0.32638	-0.088959	-0.12741	-1.0158	-0.13916	0.027161	0.06485	0.00824	-0.058594	0.002747	-0.2507	-0.24353	-0.004883	0.009613
19.306	0.001678	0.03479	0.43594	-0.00061	0.050201	-0.034332	-0.029602	0.008087	-0.030518	-0.16327	-0.000153	0.002136	-0.14328	0.070953	-0.008392	-0.019379	0.11231	-0.10773	0.083466	-0.17853	0.025024	-0.97473	-0.07019	-0.12131	-0.076447	0.009613	-0.006714	-0.000153	-1.3701	-0.24826	-0.005951	0.005188
19.307	0.006714	-0.00061	0.41809	-0.001373	0.15289	0.026703	-0.041962	0.00351	-0.023193	-0.18707	-0.000305	0.00946	-0.039673	0.10574	-0.002899	-0.019836	0.14145	-0.20798	-0.054169	-0.088348	0.18326	-0.8696	-0.15182	-0.32852	-0.079803	0.00885	0.013123	0.001373	-0.64728	-0.20065	-0.003662	-0.006714
19.308	0.00351	0.040894	0.44113	0.005646	0.085297	0.056458	-0.062866	0.009766	-0.009766	-0.26764	-0.001221	-0.002899	0.029297	0.12329	0.003967	-0.014191	0.1535	-0.14221	-0.3154	-0.027313	-0.11932	-0.65857	-0.10422	-0.53421	0.46051	0.001221	-0.051727	-0.001984	0.80185	-0.093689	-0.002594	-0.001984
19.309	0.002747	0.029144	0.4422	-0.00061	-0.002136	0.11627	-0.094757	0.006866	-0.007324	-0.22308	0.006256	0.003967	0.007019	0.12009	-0.006256	-0.022125	0.21118	-0.14923	-0.31509	0.050507	-0.42908	-0.53528	-0.13306	-0.15533	0.49881	-0.007019	-0.29785	-0.006256	0.83145	0.052032	-0.006714	0.005188
19.31	-0.00946	-0.009155	0.43091	0.007019	-0.05722	0.10544	-0.058594	-0.001373	-0.002594	-0.073547	0.002899	0.005341	-0.055542	0.10376	0.018158	-0.015564	0.1738	-0.008087	-0.13901	0.080719	-0.31693	-0.38147	-0.18066	-0.19424	0.61783	-0.013885	-0.52322	-0.001373	0.60364	0.22263	-0.003662	-0.00885
19.311	-0.005798	-0.031586	0.43335	0.011749	-0.078888	0.080872	-0.072937	0.005035	0.020752	0.18982	0.006866	0.001373	-0.081177	0.086212	0.011749	-0.011902	0.037537	0.2655	-0.45334	0.12695	-0.3215	-0.16586	-0.17838	-0.12192	0.44754	-0.011292	-0.35187	-0.00061	0.50323	0.13519	-0.006866	-0.001526
19.312	-0.015411	-0.036774	0.42709	0.005951	-0.081482	-0.030823	-0.075378	0.002594	0.018768	0.36514	0.000916	0.006409	-0.09552	0.084076	0.016632	-0.010681	-0.093384	0.46631	-0.57693	0.1181	-0.018921	-0.091553	-0.15595	0.1033	0.23865	-0.004883	-0.16983	-0.000153	0.21118	0.054474	-0.001984	-0.006866
19.313	-0.005646	-0.021973	0.41855	-0.004272	-0.029755	-0.15289	-0.0737	0.000458	0.020294	0.45212	0.002289	0.01236	-0.080566	0.044556	0.018463	-0.010529	-0.19531	0.56671	-0.27481	0.10071	0.067291	0.005493	-0.17685	0.18158	-0.11429	-0.006866	0.091858	-0.002136	0.65521	0.0737	-0.003052	-0.010681
19.314	0.005188	0.00351	0.39414	-0.016174	0.029907	-0.28	-0.089111	-0.003967	0.019073	0.24994	0.001373	-0.005493	-0.012817	0.009918	-0.001831	-0.002899	-0.11704	0.59601	-0.65643	0.10162	0.31586	0.011292	-0.073395	-0.027313	-0.45059	0.00061	0.2121	-0.006561	0.57281	0.07309	-0.003204	-0.013275
